<svg xmlns="http://www.w3.org/2000/svg"  viewBox="0 0 48 48" width="144px" height="144px"><linearGradient id="SVGID_1_" x1="38.413" x2="10.792" y1="9.587" y2="37.208" gradientUnits="userSpaceOnUse"><stop offset="0" stop-color="#60affe"/><stop offset=".033" stop-color="#6ab4fe"/><stop offset=".197" stop-color="#97cbfe"/><stop offset=".362" stop-color="#bddeff"/><stop offset=".525" stop-color="#daecff"/><stop offset=".687" stop-color="#eef7ff"/><stop offset=".846" stop-color="#fbfdff"/><stop offset="1" stop-color="#fff"/></linearGradient><path fill="url(#SVGID_1_)" d="M28.672,5.5H12.5c-1.657,0-3,1.343-3,3v31c0,1.657,1.343,3,3,3h23c1.657,0,3-1.343,3-3V15.328	c0-0.53-0.211-1.039-0.586-1.414l-7.828-7.828C29.711,5.711,29.202,5.5,28.672,5.5z"/><path fill="none" stroke="#2e9bfe" stroke-linecap="round" stroke-linejoin="round" stroke-miterlimit="10" stroke-width="3" d="M38.5,14.5h-7c-1.105,0-2-0.895-2-2v-7h-17c-1.657,0-3,1.343-3,3v18.59"/><path fill="none" stroke="#2e9bfe" stroke-linecap="round" stroke-linejoin="round" stroke-miterlimit="10" stroke-width="3" d="M9.5,33.681V39.5c0,1.657,1.343,3,3,3h23c1.657,0,3-1.343,3-3V20.021"/><line x1="38.5" x2="29.5" y1="14.5" y2="5.5" fill="none" stroke="#2e9bfe" stroke-linecap="round" stroke-linejoin="round" stroke-miterlimit="10" stroke-width="3"/><path fill="none" stroke="#2e9bfe" stroke-linecap="round" stroke-linejoin="round" stroke-miterlimit="10" stroke-width="3" d="M11.588,41.54l6.95-9.78c0.959-1.35,2.964-1.35,3.923,0l4.38,6.163"/><path fill="#2e9bfe" d="M25,22c1.105,0,2,0.895,2,2c0,1.105-0.896,2-2,2c-1.105,0-2-0.895-2-2C23,22.895,23.895,22,25,22z"/><path fill="none" stroke="#2e9bfe" stroke-linejoin="round" stroke-miterlimit="10" stroke-width="3" d="M26,36.739l2.828-3.979c0.959-1.35,2.964-1.35,3.923,0L38,40.146"/></svg>